Coordinates
version=1
nRows=13
nColumns=17
inDegrees=yes

Units are S.I. units (second, meters, Newtons, ...)
If the header above contains a line with 'inDegrees', this indicates whether rotational values are in degrees (yes) or radians (no).

endheader
time	pelvis_tilt	pelvis_tx	pelvis_ty	hip_flexion_l	hip_flexion_r	knee_angle_l	knee_angle_r	ankle_angle_l	ankle_angle_r	lumbar_extension	FC_flexion	FC_adduction	FC_rotation	FC_tx	FC_ty	FC_tz
      5.38000000	    102.98180044	     -0.33504554	      1.03259534	    -13.71510223	     78.84885947	     -0.23849588	    -56.60289797	    -31.52020534	    -34.65178455	    -29.72990672	     -3.25724335	     20.79692713	     94.57728725	     -0.13729596	     -0.11294720	     -0.21898306
      5.39000000	    102.99642034	     -0.33504964	      1.03264500	    -13.73070054	     78.86470899	     -0.24432842	    -56.57100576	    -31.51738327	    -34.65777105	    -29.73044356	     -3.25534796	     20.82597792	     94.55451528	     -0.13750123	     -0.11295559	     -0.21905550
      5.40000000	    103.08277994	     -0.33511569	      1.03272066	    -13.82540400	     78.79774548	     -0.25156671	    -56.53851390	    -31.48954418	    -34.72993884	    -29.82201865	     -3.18062062	     20.84231172	     94.58744353	     -0.13754445	     -0.11283922	     -0.21888015
      5.41000000	    103.09400001	     -0.33514043	      1.03274847	    -13.83800772	     78.81355978	     -0.25395195	    -56.50873105	    -31.48714498	    -34.72881744	    -29.82218798	     -3.17408066	     20.84662388	     94.60972077	     -0.13748643	     -0.11294244	     -0.21878420
      5.42000000	    103.10450084	     -0.33517561	      1.03272633	    -13.85211296	     78.81960047	     -0.24231793	    -56.44591689	    -31.47510187	    -34.71007612	    -29.84579781	     -3.24506393	     20.87112448	     94.64656665	     -0.13743134	     -0.11296720	     -0.21863236
      5.43000000	    103.10207674	     -0.33517700	      1.03263991	    -13.84784430	     78.87106082	     -0.23193962	    -56.42323150	    -31.47219371	    -34.71471712	    -29.86245793	     -3.22844019	     20.89125945	     94.63920690	     -0.13741892	     -0.11324843	     -0.21850983
      5.44000000	    103.09428642	     -0.33518607	      1.03264554	    -13.84649720	     78.89379974	     -0.21783097	    -56.35286980	    -31.45952225	    -34.71521769	    -29.84706527	     -3.15203282	     20.88806143	     94.54038859	     -0.13755029	     -0.11322449	     -0.21848191
      5.45000000	    103.10874367	     -0.33520868	      1.03269727	    -13.86134601	     78.90592207	     -0.22134079	    -56.32144634	    -31.45645431	    -34.70716557	    -29.85054096	     -3.17643089	     20.91892232	     94.48991062	     -0.13761576	     -0.11323457	     -0.21851463
      5.46000000	    103.11854879	     -0.33520669	      1.03270645	    -13.87170253	     78.93008057	     -0.22376735	    -56.28956124	    -31.45332641	    -34.70166893	    -29.85797767	     -3.18735493	     20.94585832	     94.47722878	     -0.13774761	     -0.11328260	     -0.21850164
      5.47000000	    103.12484707	     -0.33522228	      1.03269710	    -13.87547746	     78.94878082	     -0.22320890	    -56.25774177	    -31.45104029	    -34.69596504	    -29.86766925	     -3.17183906	     20.93001907	     94.50741734	     -0.13768693	     -0.11331837	     -0.21845374
      5.48000000	    103.13145481	     -0.33524338	      1.03265321	    -13.87893571	     78.97081228	     -0.22197107	    -56.22988799	    -31.44840265	    -34.69360711	    -29.88052026	     -3.15068887	     20.91678065	     94.55465957	     -0.13767253	     -0.11335112	     -0.21839420
      5.49000000	    103.13920466	     -0.33527346	      1.03268655	    -13.88851171	     78.98928995	     -0.22342643	    -56.19884820	    -31.44552817	    -34.69203502	    -29.88853246	     -3.13172065	     20.91306696	     94.61195311	     -0.13768762	     -0.11335550	     -0.21836566
      5.50000000	    103.14865378	     -0.33528052	      1.03268652	    -13.89750213	     79.00634754	     -0.22306219	    -56.16740712	    -31.44114912	    -34.69069345	    -29.89625385	     -3.12894621	     20.91854664	     94.63197997	     -0.13768759	     -0.11336385	     -0.21837187
